<?xml version="1.0" encoding="UTF-8" standalone="no"?><svg xmlns="http://www.w3.org/2000/svg" xmlns:xlink="http://www.w3.org/1999/xlink" fill="#000000" height="182" preserveAspectRatio="xMidYMid meet" version="1.1" viewBox="84.8 121.9 199.9 182.0" width="199.9" zoomAndPan="magnify">
 <g id="surface1">
  <g id="change1_1"><path d="m245.6 281.92l-97.89-33.61 43.4-126.37 85.44 29.33 8.22 16.55-39.17 114.1" fill="#f1c503"/></g>
  <g id="change2_1"><path d="m272.37 163.61l12.4 4.21-8.22-16.55z" fill="#f1c503"/></g>
  <path d="m1822 2309.5l711.8-244.5" fill="none" stroke="#192646" stroke-linecap="round" stroke-miterlimit="10" stroke-width="20.201" transform="matrix(.1 0 0 -.1 0 425.2)"/>
  <path d="m1762.6 2136.7l711.9-244.4" fill="none" stroke="#192646" stroke-linecap="round" stroke-miterlimit="10" stroke-width="20.201" transform="matrix(.1 0 0 -.1 0 425.2)"/>
  <path d="m1703.3 1964l711.9-244.5" fill="none" stroke="#192646" stroke-linecap="round" stroke-miterlimit="10" stroke-width="20.201" transform="matrix(.1 0 0 -.1 0 425.2)"/>
  <g id="change3_1"><path d="m201.45 191.26l-10.04-3.44 7.93-23.09 10.03 3.45-7.92 23.08" fill="#ffffff"/></g>
  <g id="change4_1"><path d="m217.39 196.74l-10.03-3.45 11.1-32.31 10.03 3.44-11.1 32.32" fill="#000000"/></g>
  <g id="change2_2"><path d="m233.35 202.21l-10.03-3.44 14.81-43.15 10.03 3.44-14.81 43.15" fill="#f1c503"/></g>
  <g id="change5_1"><path d="m248.28 207.34l-10.03-3.44 11.46-33.4 10.04 3.45-11.47 33.39" fill="#ffffff"/></g>
  <g id="change4_2"><path d="m227.22 231.92c-0.72-13.08-12.39-23.47-26.69-23.47-4.18 0-8.14 0.89-11.67 2.47-6.77-12.8-20.97-21.6-37.4-21.6-23 0-41.65 17.26-41.65 38.56 0 3.49 0.51 6.87 1.45 10.09-10.19 7.03-16.791 18.27-16.791 30.94 0 13.59 5.961 28.82 19.061 32.4 9.51 2.6 114.99 2.6 124.5 0 13.09-3.58 19.06-18.81 19.06-32.4 0-17.5-12.61-32.28-29.87-36.99" fill="#000000"/></g>
  <path d="m863.48 2099.9c0 349.2 283.12 632.4 632.32 632.4" fill="none" stroke="#192646" stroke-linecap="round" stroke-miterlimit="10" stroke-width="30" transform="matrix(.1 0 0 -.1 0 425.2)"/>
  <path d="m1482.4 2781.4l38.1-49.1-41.9-51.2" fill="none" stroke="#192646" stroke-linecap="round" stroke-linejoin="round" stroke-miterlimit="10" stroke-width="30" transform="matrix(.1 0 0 -.1 0 425.2)"/>
 </g>
</svg>