<?xml version="1.0" encoding="UTF-8" standalone="no"?><svg xmlns="http://www.w3.org/2000/svg" xmlns:xlink="http://www.w3.org/1999/xlink" fill="#000000" height="255.1" preserveAspectRatio="xMidYMid meet" version="1" viewBox="92.1 85.0 241.1 255.1" width="241.1" zoomAndPan="magnify"><g><g id="change1_1"><path d="M305.02,233.69c0,0.13,0,0.27-0.01,0.4c-0.04,12.44-2.21,24.38-6.19,35.47c-0.53,1.49-1.09,2.95-1.7,4.4 v0.01c-11.53,28.21-34.83,50.37-63.8,60.38c-3.72,1.29-7.52,2.38-11.41,3.23c-7.52,1.7-15.34,2.58-23.36,2.58 c-10.91,0-21.43-1.63-31.33-4.69c-2.51-0.77-4.98-1.63-7.4-2.58c-38.96-15.22-66.75-52.71-67.72-96.82 c-0.02-0.79-0.03-1.59-0.03-2.38c0-0.79,0.01-1.58,0.03-2.38c0.66-30.39,14.07-57.66,35.09-76.65c1.68-1.52,3.4-2.97,5.17-4.38 c18.18-14.45,41.17-23.08,66.19-23.08c8.02,0,15.84,0.88,23.35,2.57c3.89,0.87,7.71,1.96,11.43,3.25 c30.28,10.45,54.36,34.18,65.3,64.23v0.01c0.84,2.3,1.6,4.64,2.29,7.02c2.25,7.85,3.62,16.09,3.99,24.57 C304.98,230.45,305.02,232.07,305.02,233.69z" fill="#f1c503"/></g><g id="change2_1"><path d="M283.27,233.69c0,0.11,0,0.21-0.01,0.32c-0.03,9.9-1.76,19.4-4.93,28.22c-0.42,1.19-0.87,2.35-1.35,3.5 v0.01c-9.18,22.45-27.72,40.08-50.77,48.04c-2.96,1.02-5.98,1.89-9.08,2.57c-5.98,1.35-12.2,2.05-18.59,2.05 c-8.68,0-17.05-1.3-24.93-3.73c-2-0.61-3.97-1.29-5.89-2.05c-31-12.11-53.12-41.95-53.89-77.04c-0.01-0.63-0.02-1.27-0.02-1.9 c0-0.63,0.01-1.26,0.02-1.89c0.53-24.19,11.19-45.88,27.92-60.99c1.34-1.21,2.71-2.37,4.12-3.48 c14.46-11.5,32.76-18.36,52.67-18.36c6.38,0,12.6,0.7,18.58,2.05c3.1,0.69,6.13,1.56,9.1,2.59 c24.09,8.32,43.25,27.2,51.96,51.11v0.01c0.67,1.83,1.27,3.7,1.82,5.59c1.79,6.25,2.88,12.8,3.18,19.55 C283.24,231.11,283.27,232.4,283.27,233.69z" fill="#ffffff"/></g><g id="change1_2"><path d="M260.18,233.69c0,0.08,0,0.16-0.01,0.23c-0.02,7.2-1.28,14.11-3.58,20.53c-0.3,0.86-0.63,1.71-0.98,2.55 V257c-6.67,16.33-20.16,29.16-36.93,34.95c-2.15,0.74-4.35,1.38-6.61,1.87c-4.35,0.98-8.88,1.49-13.52,1.49 c-6.31,0-12.4-0.95-18.14-2.71c-1.45-0.44-2.88-0.94-4.29-1.49c-22.55-8.81-38.64-30.51-39.2-56.04 c-0.01-0.46-0.02-0.92-0.02-1.38c0-0.46,0.01-0.92,0.02-1.38c0.38-17.59,8.14-33.38,20.31-44.37c0.97-0.88,1.97-1.72,2.99-2.53 c10.52-8.36,23.83-13.36,38.31-13.36c4.64,0,9.17,0.51,13.51,1.49c2.25,0.5,4.46,1.13,6.62,1.88 c17.53,6.05,31.46,19.78,37.8,37.18v0.01c0.49,1.33,0.93,2.69,1.32,4.06c1.3,4.54,2.09,9.31,2.31,14.22 C260.15,231.81,260.18,232.75,260.18,233.69z" fill="#f1c503"/></g><g id="change2_2"><path d="M237.93,233.69c0,0.05,0,0.1,0,0.15c-0.01,4.6-0.82,9.02-2.29,13.12c-0.19,0.55-0.4,1.09-0.63,1.63v0 c-4.27,10.44-12.88,18.63-23.6,22.33c-1.37,0.48-2.78,0.88-4.22,1.2c-2.78,0.63-5.67,0.95-8.64,0.95 c-4.03,0-7.93-0.6-11.59-1.73c-0.93-0.28-1.84-0.6-2.74-0.95c-14.41-5.63-24.69-19.5-25.05-35.81 c-0.01-0.29-0.01-0.59-0.01-0.88c0-0.29,0-0.58,0.01-0.88c0.24-11.24,5.2-21.33,12.98-28.35c0.62-0.56,1.26-1.1,1.91-1.62 c6.72-5.35,15.23-8.54,24.48-8.54c2.97,0,5.86,0.33,8.64,0.95c1.44,0.32,2.85,0.72,4.23,1.2c11.2,3.87,20.11,12.64,24.15,23.76 v0c0.31,0.85,0.59,1.72,0.85,2.6c0.83,2.9,1.34,5.95,1.48,9.09C237.92,232.49,237.93,233.09,237.93,233.69z" fill="#ffffff"/></g><g id="change1_3"><path d="M216.03,233.68c0,0.02,0,0.04,0,0.07c-0.01,2.04-0.36,4-1.02,5.82c-0.09,0.24-0.18,0.48-0.28,0.72v0 c-1.89,4.63-5.72,8.27-10.48,9.91c-0.61,0.21-1.23,0.39-1.87,0.53c-1.23,0.28-2.52,0.42-3.84,0.42c-1.79,0-3.52-0.27-5.14-0.77 c-0.41-0.13-0.82-0.27-1.22-0.42c-6.4-2.5-10.96-8.66-11.12-15.9c0-0.13,0-0.26,0-0.39s0-0.26,0-0.39 c0.11-4.99,2.31-9.47,5.76-12.59c0.28-0.25,0.56-0.49,0.85-0.72c2.98-2.37,6.76-3.79,10.87-3.79c1.32,0,2.6,0.15,3.83,0.42 c0.64,0.14,1.27,0.32,1.88,0.53c4.97,1.72,8.93,5.61,10.72,10.55v0c0.14,0.38,0.26,0.76,0.38,1.15 c0.37,1.29,0.59,2.64,0.66,4.03C216.02,233.15,216.03,233.42,216.03,233.68z" fill="#f1c503"/></g><g id="change3_2"><path d="M272.6 148.96L266.89 122.69 297.88 85.04 302.17 117.31z" fill="#f1c503"/></g><g id="change3_1"><path d="M333.13 120.8L306.52 117 271.21 150.64 303.71 152.58z" fill="#f1c503"/></g><g id="change4_1"><path d="M171.73 170.48H331.84000000000003V177.32H171.73z" fill="#000000" transform="rotate(-48.316 251.785 173.903)"/></g><g id="change4_2"><path d="M195.99 231.41L193.54 239.82 201.1 235.96z" fill="#000000"/></g></g></svg>