<?xml version="1.0" encoding="UTF-8" standalone="no"?><svg xmlns="http://www.w3.org/2000/svg" xmlns:xlink="http://www.w3.org/1999/xlink" fill="#000000" height="256.3" preserveAspectRatio="xMidYMid meet" version="1.1" viewBox="122.7 84.4 179.8 256.3" width="179.8" zoomAndPan="magnify">
 <g id="surface1">
  <g id="change1_1"><path d="m302.32 340.77h-179.63v-256.34h145.7l34.12 34.55-0.19 221.79" fill="#f1c503"/></g>
  <g id="change2_1"><path d="m268.39 84.43l34.12 34.55-34.12-2.09z" fill="#000000"/></g>
  <g id="change2_2"><path d="m247.02 124.84h-68.85v-7.91h68.85v7.91" fill="#000000"/></g>
  <g id="change2_3"><path d="m231.42 145.41h-37.64v-7.92h37.64v7.92" fill="#000000"/></g>
  <g id="change2_4"><path d="m285.41 170.34h-145.62v-7.91h145.62v7.91" fill="#000000"/></g>
  <g id="change2_5"><path d="m285.41 183.43h-145.62v-7.92h145.62v7.92" fill="#000000"/></g>
  <g id="change2_6"><path d="m212.6 196.51h-72.81v-7.92h72.81v7.92" fill="#000000"/></g>
  <g id="change2_7"><path d="m285.85 227.04h-120.82v-7.92h120.82v7.92" fill="#000000"/></g>
  <g id="change2_8"><path d="m285.85 255.11h-120.82v-7.92h120.82v7.92" fill="#000000"/></g>
  <g id="change2_9"><path d="m285.85 282.13h-120.82v-7.92h120.82v7.92" fill="#000000"/></g>
  <g id="change2_10"><path d="m285.85 309.16h-120.82v-7.92h120.82v7.92" fill="#000000"/></g>
  <g id="change2_11"><path d="m156.66 231.87h-15.5v-15.49h15.5v15.49" fill="#000000"/></g>
  <g id="change2_12"><path d="m156.66 258.89h-15.5v-15.49h15.5v15.49" fill="#000000"/></g>
  <g id="change2_13"><path d="m156.66 285.92h-15.5v-15.49h15.5v15.49" fill="#000000"/></g>
  <g id="change2_14"><path d="m156.66 312.94h-15.5v-15.49h15.5v15.49" fill="#000000"/></g>
  <g id="change3_1"><path d="m147.53 228.42l-0.2-0.01c-0.46-0.07-0.86-0.37-1.05-0.8l-2.58-5.67c-0.32-0.69-0.01-1.51 0.68-1.82 0.69-0.32 1.51-0.01 1.82 0.68l1.7 3.72 11.15-12.82c0.49-0.58 1.36-0.64 1.94-0.14 0.57 0.5 0.63 1.37 0.13 1.94l-12.55 14.45c-0.26 0.3-0.64 0.47-1.04 0.47" fill="#ffffff"/></g>
  <g id="change3_2"><path d="m147.53 255.79l-0.2-0.02c-0.46-0.06-0.86-0.36-1.05-0.79l-2.58-5.67c-0.32-0.69-0.01-1.51 0.68-1.83 0.69-0.31 1.51 0 1.82 0.69l1.7 3.72 11.15-12.82c0.49-0.58 1.36-0.64 1.94-0.14 0.57 0.5 0.63 1.37 0.13 1.94l-12.55 14.44c-0.26 0.31-0.64 0.48-1.04 0.48" fill="#ffffff"/></g>
  <g id="change3_3"><path d="m147.53 281.79l-0.2-0.02c-0.46-0.06-0.86-0.36-1.05-0.79l-2.58-5.67c-0.32-0.69-0.01-1.51 0.68-1.83 0.69-0.31 1.51 0 1.82 0.69l1.7 3.72 11.15-12.82c0.49-0.58 1.36-0.64 1.94-0.14 0.57 0.5 0.63 1.37 0.13 1.94l-12.55 14.44c-0.26 0.31-0.64 0.48-1.04 0.48" fill="#ffffff"/></g>
  <g id="change3_4"><path d="m147.53 309.16l-0.2-0.02c-0.46-0.07-0.86-0.37-1.05-0.79l-2.58-5.67c-0.32-0.7-0.01-1.51 0.68-1.82 0.69-0.32 1.51-0.02 1.82 0.68l1.7 3.72 11.15-12.83c0.49-0.57 1.36-0.63 1.94-0.13 0.57 0.5 0.63 1.36 0.13 1.94l-12.55 14.44c-0.26 0.3-0.64 0.48-1.04 0.48" fill="#ffffff"/></g>
 </g>
</svg>