<?xml version="1.0" encoding="UTF-8" standalone="no"?><!-- Generator: Adobe Illustrator 23.0.3, SVG Export Plug-In . SVG Version: 6.00 Build 0)  --><svg xmlns="http://www.w3.org/2000/svg" enable-background="new 0 0 341.56 500" fill="#000000" id="Layer_1" version="1.1" viewBox="0 0 341.56 500" x="0px" xml:space="preserve" y="0px">
<g id="change1_1"><path d="m341.43 164.42c0.06-0.78 0.13-1.74 0.13-2.81 0-89.11-76.61-161.61-170.78-161.61s-170.78 72.5-170.78 161.61c0 1.12 0.07 2.1 0.14 2.97 0.02 0.32 0.05 0.63 0.07 0.95-2.01 48.6 14.47 94.78 47.66 133.57 18.72 21.88 37.71 35.62 46.53 41.4v27.03c-9.45 4.86-15.94 14.71-15.94 26.05 0 14.97 11.29 27.34 25.81 29.07-0.93 2.82-1.44 5.83-1.44 8.95v1.09c0 15.48 12.3 28.13 27.64 28.71-0.98 2.93-1.53 6.05-1.53 9.31 0 16.15 13.13 29.28 29.28 29.28h30.86c16.14 0 29.28-13.13 29.28-29.28 0-3.25-0.54-6.38-1.53-9.31 15.34-0.58 27.64-13.23 27.64-28.71v-1.09c0-3.13-0.51-6.13-1.44-8.95 14.51-1.72 25.81-14.1 25.81-29.07 0-13.51-9.19-24.9-21.65-28.27v-24.81c8.82-5.79 27.81-19.53 46.53-41.41 33.21-38.82 49.68-85.02 47.66-133.65 0-0.33 0.03-0.68 0.05-1.02zm-152.36 315.58h-30.86c-5.12 0-9.28-4.16-9.28-9.28s4.16-9.28 9.28-9.28h30.86c5.12 0 9.28 4.16 9.28 9.28s-4.16 9.28-9.28 9.28zm35.39-47.3c0 4.74-4 8.74-8.74 8.74h-84.16c-4.82 0-8.74-3.92-8.74-8.74v-1.09c0-4.82 3.92-8.74 8.74-8.74h84.16c4.82 0 8.74 3.92 8.74 8.74v1.09zm15.09-29.83h-131.82c-5.12 0-9.28-4.16-9.28-9.28s4.16-9.28 9.28-9.28h131.82c5.12 0 9.28 4.16 9.28 9.28s-4.16 9.28-9.28 9.28zm-106.46-161.28h-2.31c-1.36 0-2.31-0.85-2.31-1.62v-0.73c0-0.77 0.95-1.62 2.31-1.62s2.31 0.85 2.31 1.62v2.35zm56.14 122.72h-36.14v-102.72h36.14v102.72zm132.14-198.34c1.91 43.99-12.36 84.23-42.41 119.59-22.75 26.78-46.51 40.58-46.74 40.7-3.12 1.78-5.05 5.1-5.05 8.69v29.35h-17.95v-102.71h1.92c12.09 0 21.92-9.54 21.92-21.26v-1.45c0-11.72-9.83-21.26-21.92-21.26s-21.92 9.54-21.92 21.26v2.71h-36.14v-2.35c0-11.92-10.01-21.62-22.31-21.62s-22.31 9.7-22.31 21.62v0.73c0 11.92 10.01 21.62 22.31 21.62h2.31v102.72h-18.7v-29.35c0-3.58-1.93-6.9-5.04-8.68-0.24-0.14-23.99-13.93-46.75-40.71-30.05-35.37-44.32-75.61-42.4-119.6 0.01-0.25 0.01-0.49 0-0.74-0.02-0.72-0.07-1.43-0.12-2.14-0.04-0.59-0.08-1.11-0.08-1.49 0.01-78.07 67.65-141.6 150.79-141.6s150.78 63.53 150.78 141.61c0 0.34-0.04 0.83-0.07 1.36-0.05 0.71-0.11 1.51-0.12 2.43-0.01 0.19-0.01 0.38 0 0.57zm-112.14 75.62v-2.71c0-0.51 0.75-1.26 1.92-1.26s1.92 0.75 1.92 1.26v1.45c0 0.51-0.75 1.26-1.92 1.26h-1.92zm86.53-133.14c2.62 4.86 0.8 10.93-4.07 13.54-1.51 0.81-3.13 1.2-4.73 1.2-3.56 0-7.01-1.91-8.81-5.26-13.39-24.88-35.53-45.15-62.34-57.06-5.05-2.24-7.32-8.15-5.08-13.2s8.15-7.32 13.2-5.08c30.84 13.71 56.35 37.1 71.83 65.86z" fill="#000000"/></g>
</svg>