<?xml version="1.0" encoding="UTF-8" standalone="no"?><svg xmlns="http://www.w3.org/2000/svg" xmlns:xlink="http://www.w3.org/1999/xlink" fill="#000000" height="226.8" preserveAspectRatio="xMidYMid meet" version="1.1" viewBox="140.7 99.2 143.9 226.8" width="143.9" zoomAndPan="magnify">
 <g id="surface1">
  <g id="change1_1"><path d="m233.04 297.43c0 15.77-20.44 28.55-20.44 28.55s-20.44-12.78-20.44-28.55 9.15-28.55 20.44-28.55 20.44 12.78 20.44 28.55" fill="#f1c503"/></g>
  <g id="change2_1"><path d="m229.61 293.6c0 13.12-17.01 23.76-17.01 23.76s-17.01-10.64-17.01-23.76c0-13.13 7.61-23.76 17.01-23.76 9.39 0 17.01 10.63 17.01 23.76" fill="#ffffff"/></g>
  <g id="change3_1"><path d="m213.18 170.14l47.53 11.5 23.84 77.15-59.53-37.33-11.84-51.32" fill="#000000"/></g>
  <g id="change3_2"><path d="m212.02 170.14l-47.53 11.5-23.84 77.15 59.53-37.33 11.84-51.32" fill="#000000"/></g>
  <g id="change4_1"><path d="m248.86 191.31c0 50.87-16.23 92.1-36.26 92.1-20.04 0-36.26-41.23-36.26-92.1 0-24.91 3.88-47.51 10.21-64.08 6.59-17.27 15.83-28.015 26.05-28.015 10.21 0 19.45 10.745 26.04 28.015 6.33 16.57 10.22 39.17 10.22 64.08" fill="#f1c503"/></g>
  <g id="change5_1"><path d="m238.64 127.23c-6.57 8.65-15.81 14.02-26.04 14.02s-19.47-5.37-26.05-14.02c6.59-17.27 15.83-28.015 26.05-28.015 10.21 0 19.45 10.745 26.04 28.015" fill="#000000"/></g>
  <g id="change5_2"><path d="m227.61 185.15c0 8.29-6.72 15.01-15.01 15.01s-15.01-6.72-15.01-15.01 6.72-15.01 15.01-15.01 15.01 6.72 15.01 15.01" fill="#000000"/></g>
 </g>
</svg>