<?xml version="1.0" encoding="UTF-8" standalone="no"?><svg xmlns="http://www.w3.org/2000/svg" xmlns:xlink="http://www.w3.org/1999/xlink" fill="#000000" height="234.8" preserveAspectRatio="xMidYMid meet" version="1" viewBox="84.5 95.2 256.7 234.8" width="256.7" zoomAndPan="magnify"><g><g id="change1_1"><path d="M283.5,206.4H137.15c-1.74,0-3.29-1.07-3.91-2.7l-4.34-11.45c-0.65-1.71-2.29-2.84-4.12-2.84H89.44 c-2.83,0-4.93,2.64-4.29,5.4l31.54,135.18h195.64L283.5,206.4z" fill="#f1c503"/></g><g id="change2_1"><path d="M126.66 95.21H301.99V316.98H126.66z" fill="#f1c503"/></g><g id="change3_1"><path d="M143.92 116.56H194.85999999999999V172.23000000000002H143.92z" fill="#ffffff"/></g><g id="change3_2"><path d="M208.52 116.56H284.67V122.34H208.52z" fill="#ffffff"/></g><g id="change3_3"><path d="M208.52 132.84H284.67V138.62H208.52z" fill="#ffffff"/></g><g id="change3_4"><path d="M208.52 149.12H284.67V154.9H208.52z" fill="#ffffff"/></g><g id="change3_5"><path d="M208.52 165.4H284.67V171.18H208.52z" fill="#ffffff"/></g><g id="change3_6"><path d="M143.92 181.68H284.65999999999997V187.46H143.92z" fill="#ffffff"/></g><g id="change3_7"><path d="M143.92 197.96H284.65999999999997V203.74H143.92z" fill="#ffffff"/></g><g id="change3_8"><path d="M143.92 214.24H284.65999999999997V220.02H143.92z" fill="#ffffff"/></g><g id="change3_9"><path d="M143.92 230.52H284.65999999999997V236.3H143.92z" fill="#ffffff"/></g><g id="change3_10"><path d="M143.92 246.8H284.65999999999997V252.58H143.92z" fill="#ffffff"/></g><g id="change3_11"><path d="M143.92 263.08H284.65999999999997V268.85999999999996H143.92z" fill="#ffffff"/></g><g id="change3_12"><path d="M143.92 279.36H284.65999999999997V285.14H143.92z" fill="#ffffff"/></g><g id="change3_13"><path d="M143.92 295.64H284.65999999999997V301.41999999999996H143.92z" fill="#ffffff"/></g><g id="change4_1"><path d="M201.63,206.4l3.05-8.85c1.37-3.99-1.59-8.14-5.8-8.14h-43.34c-2.85,0-5.33,1.97-5.98,4.74l-31.69,135.83 h195.64l26.43-113.27c1.23-5.28-2.77-10.32-8.19-10.32H201.63z" fill="#000000"/></g></g></svg>