<?xml version="1.0" encoding="UTF-8" standalone="no"?><svg xmlns="http://www.w3.org/2000/svg" xmlns:xlink="http://www.w3.org/1999/xlink" clip-rule="evenodd" fill="#000000" fill-rule="evenodd" height="215.2" preserveAspectRatio="xMidYMid meet" stroke-linejoin="round" stroke-miterlimit="2" version="1" viewBox="0.0 0.0 846.8 215.2" width="846.8" zoomAndPan="magnify"><g id="change1_1"><path d="M899.164,515.054C908,515.054 915.175,522.228 915.175,531.064C915.175,539.901 908,547.075 899.164,547.075C890.328,547.075 883.153,539.901 883.153,531.064C883.153,522.228 890.328,515.054 899.164,515.054ZM84.414,515.054C93.25,515.054 100.425,522.228 100.425,531.064C100.425,539.901 93.25,547.075 84.414,547.075C75.578,547.075 68.403,539.901 68.403,531.064C68.403,522.228 75.578,515.054 84.414,515.054ZM782.771,515.054C791.608,515.054 798.782,522.228 798.782,531.064C798.782,539.901 791.608,547.075 782.771,547.075C773.935,547.075 766.761,539.901 766.761,531.064C766.761,522.228 773.935,515.054 782.771,515.054ZM200.807,515.054C209.643,515.054 216.817,522.228 216.817,531.064C216.817,539.901 209.643,547.075 200.807,547.075C191.97,547.075 184.796,539.901 184.796,531.064C184.796,522.228 191.97,515.054 200.807,515.054ZM666.378,515.054C675.215,515.054 682.389,522.228 682.389,531.064C682.389,539.901 675.215,547.075 666.378,547.075C657.542,547.075 650.368,539.901 650.368,531.064C650.368,522.228 657.542,515.054 666.378,515.054ZM317.2,515.054C326.036,515.054 333.21,522.228 333.21,531.064C333.21,539.901 326.036,547.075 317.2,547.075C308.363,547.075 301.189,539.901 301.189,531.064C301.189,522.228 308.363,515.054 317.2,515.054ZM549.985,515.054C558.822,515.054 565.996,522.228 565.996,531.064C565.996,539.901 558.822,547.075 549.985,547.075C541.149,547.075 533.975,539.901 533.975,531.064C533.975,522.228 541.149,515.054 549.985,515.054ZM433.593,515.054C442.429,515.054 449.603,522.228 449.603,531.064C449.603,539.901 442.429,547.075 433.593,547.075C424.756,547.075 417.582,539.901 417.582,531.064C417.582,522.228 424.756,515.054 433.593,515.054ZM84.414,453.992C93.25,453.992 100.425,461.166 100.425,470.002C100.425,478.839 93.25,486.013 84.414,486.013C75.578,486.013 68.403,478.839 68.403,470.002C68.403,461.166 75.578,453.992 84.414,453.992ZM899.164,453.992C908,453.992 915.175,461.166 915.175,470.002C915.175,478.839 908,486.013 899.164,486.013C890.328,486.013 883.153,478.839 883.153,470.002C883.153,461.166 890.328,453.992 899.164,453.992ZM200.807,453.992C209.643,453.992 216.817,461.166 216.817,470.002C216.817,478.839 209.643,486.013 200.807,486.013C191.97,486.013 184.796,478.839 184.796,470.002C184.796,461.166 191.97,453.992 200.807,453.992ZM782.771,453.992C791.608,453.992 798.782,461.166 798.782,470.002C798.782,478.839 791.608,486.013 782.771,486.013C773.935,486.013 766.761,478.839 766.761,470.002C766.761,461.166 773.935,453.992 782.771,453.992ZM317.2,453.992C326.036,453.992 333.21,461.166 333.21,470.002C333.21,478.839 326.036,486.013 317.2,486.013C308.363,486.013 301.189,478.839 301.189,470.002C301.189,461.166 308.363,453.992 317.2,453.992ZM666.378,453.992C675.215,453.992 682.389,461.166 682.389,470.002C682.389,478.839 675.215,486.013 666.378,486.013C657.542,486.013 650.368,478.839 650.368,470.002C650.368,461.166 657.542,453.992 666.378,453.992ZM433.593,453.992C442.429,453.992 449.603,461.166 449.603,470.002C449.603,478.839 442.429,486.013 433.593,486.013C424.756,486.013 417.582,478.839 417.582,470.002C417.582,461.166 424.756,453.992 433.593,453.992ZM549.985,453.992C558.822,453.992 565.996,461.166 565.996,470.002C565.996,478.839 558.822,486.013 549.985,486.013C541.149,486.013 533.975,478.839 533.975,470.002C533.975,461.166 541.149,453.992 549.985,453.992ZM84.414,392.93C93.25,392.93 100.425,400.104 100.425,408.94C100.425,417.777 93.25,424.951 84.414,424.951C75.578,424.951 68.403,417.777 68.403,408.94C68.403,400.104 75.578,392.93 84.414,392.93ZM549.985,392.93C558.822,392.93 565.996,400.104 565.996,408.94C565.996,417.777 558.822,424.951 549.985,424.951C541.149,424.951 533.975,417.777 533.975,408.94C533.975,400.104 541.149,392.93 549.985,392.93ZM433.593,392.93C442.429,392.93 449.603,400.104 449.603,408.94C449.603,417.777 442.429,424.951 433.593,424.951C424.756,424.951 417.582,417.777 417.582,408.94C417.582,400.104 424.756,392.93 433.593,392.93ZM666.378,392.93C675.215,392.93 682.389,400.104 682.389,408.94C682.389,417.777 675.215,424.951 666.378,424.951C657.542,424.951 650.368,417.777 650.368,408.94C650.368,400.104 657.542,392.93 666.378,392.93ZM317.2,392.93C326.036,392.93 333.21,400.104 333.21,408.94C333.21,417.777 326.036,424.951 317.2,424.951C308.363,424.951 301.189,417.777 301.189,408.94C301.189,400.104 308.363,392.93 317.2,392.93ZM782.771,392.93C791.608,392.93 798.782,400.104 798.782,408.94C798.782,417.777 791.608,424.951 782.771,424.951C773.935,424.951 766.761,417.777 766.761,408.94C766.761,400.104 773.935,392.93 782.771,392.93ZM200.807,392.93C209.643,392.93 216.817,400.104 216.817,408.94C216.817,417.777 209.643,424.951 200.807,424.951C191.97,424.951 184.796,417.777 184.796,408.94C184.796,400.104 191.97,392.93 200.807,392.93ZM899.164,392.93C908,392.93 915.175,400.104 915.175,408.94C915.175,417.777 908,424.951 899.164,424.951C890.328,424.951 883.153,417.777 883.153,408.94C883.153,400.104 890.328,392.93 899.164,392.93ZM666.378,331.868C675.215,331.868 682.389,339.042 682.389,347.878C682.389,356.715 675.215,363.889 666.378,363.889C657.542,363.889 650.368,356.715 650.368,347.878C650.368,339.042 657.542,331.868 666.378,331.868ZM433.593,331.868C442.429,331.868 449.603,339.042 449.603,347.878C449.603,356.715 442.429,363.889 433.593,363.889C424.756,363.889 417.582,356.715 417.582,347.878C417.582,339.042 424.756,331.868 433.593,331.868ZM782.771,331.868C791.608,331.868 798.782,339.042 798.782,347.878C798.782,356.715 791.608,363.889 782.771,363.889C773.935,363.889 766.761,356.715 766.761,347.878C766.761,339.042 773.935,331.868 782.771,331.868ZM317.2,331.868C326.036,331.868 333.21,339.042 333.21,347.878C333.21,356.715 326.036,363.889 317.2,363.889C308.363,363.889 301.189,356.715 301.189,347.878C301.189,339.042 308.363,331.868 317.2,331.868ZM899.164,331.868C908,331.868 915.175,339.042 915.175,347.878C915.175,356.715 908,363.889 899.164,363.889C890.328,363.889 883.153,356.715 883.153,347.878C883.153,339.042 890.328,331.868 899.164,331.868ZM200.807,331.868C209.643,331.868 216.817,339.042 216.817,347.878C216.817,356.715 209.643,363.889 200.807,363.889C191.97,363.889 184.796,356.715 184.796,347.878C184.796,339.042 191.97,331.868 200.807,331.868ZM549.985,331.868C558.822,331.868 565.996,339.042 565.996,347.878C565.996,356.715 558.822,363.889 549.985,363.889C541.149,363.889 533.975,356.715 533.975,347.878C533.975,339.042 541.149,331.868 549.985,331.868ZM84.414,331.868C93.25,331.868 100.425,339.042 100.425,347.878C100.425,356.715 93.25,363.889 84.414,363.889C75.578,363.889 68.403,356.715 68.403,347.878C68.403,339.042 75.578,331.868 84.414,331.868Z" fill="#ffffff" transform="translate(-68.403 -331.868)"/></g></svg>